Coordinates
version=1
nRows=6
nColumns=63
inDegrees=yes

Units are S.I. units (second, meters, Newtons, ...)
If the header above contains a line with 'inDegrees', this indicates whether rotational values are in degrees (yes) or radians (no).

endheader
time	pelvis_tilt	pelvis_list	pelvis_rotation	pelvis_tx	pelvis_ty	pelvis_tz	hip_flexion_r	hip_adduction_r	hip_rotation_r	knee_angle_r	knee_angle_r_beta	ankle_angle_r	subtalar_angle_r	mtp_angle_r	hip_flexion_l	hip_adduction_l	hip_rotation_l	knee_angle_l	knee_angle_l_beta	ankle_angle_l	subtalar_angle_l	mtp_angle_l	L5_S1_Flex_Ext	L5_S1_Lat_Bending	L5_S1_axial_rotation	L4_L5_Flex_Ext	L4_L5_Lat_Bending	L4_L5_axial_rotation	L3_L4_Flex_Ext	L3_L4_Lat_Bending	L3_L4_axial_rotation	L2_L3_Flex_Ext	L2_L3_Lat_Bending	L2_L3_axial_rotation	L1_L2_Flex_Ext	L1_L2_Lat_Bending	L1_L2_axial_rotation	L1_T12_Flex_Ext	L1_T12_Lat_Bending	L1_T12_axial_rotation	Abs_r3	Abs_r2	Abs_r1	Abs_t1	Abs_t2	neck_flexion	neck_bending	neck_rotation	arm_flex_r	arm_add_r	arm_rot_r	elbow_flex_r	pro_sup_r	wrist_flex_r	wrist_dev_r	arm_flex_l	arm_add_l	arm_rot_l	elbow_flex_l	pro_sup_l	wrist_flex_l	wrist_dev_l
5.963636	-7.001418	-6.344979	98.241236	0.080387	1.030752	0.324434	-11.373547	-3.316057	-1.094861	4.463524	0.077903	31.499597	5.860108	0.000000	-11.703512	2.958973	-0.880495	0.375591	0.006555	29.012008	6.339126	0.000000	-0.293382	-0.598807	0.272651	-0.544840	-0.796413	0.289692	-0.481998	-1.455939	0.289692	-0.335307	-1.455939	0.238569	-0.272435	-1.221087	0.221529	-0.167639	-0.927552	0.204488	-2.095600	-6.773823	1.516402	0.000000	0.000000	6.584397	7.468857	-9.627294	-11.054716	-20.548097	18.301667	122.098066	70.047883	44.238630	13.086908	1.797420	-12.131286	150.205698	0.632551	1.888115	-5.787248	-13.347840
5.981818	-6.894909	-6.158353	97.842225	0.080348	1.030820	0.323684	-11.427812	-3.328047	-1.154472	4.563571	0.079649	31.866372	6.540457	0.000000	-11.960814	2.950649	-1.325822	0.363974	0.006353	29.064402	6.347981	0.000000	-0.295318	-0.569010	0.302083	-0.548435	-0.756783	0.320963	-0.485178	-1.383490	0.320963	-0.337519	-1.383490	0.264323	-0.274232	-1.160325	0.245443	-0.168745	-0.881396	0.226562	-2.109428	-6.436752	1.680096	0.000000	0.000000	6.935020	7.609321	-9.304250	-10.987531	-20.472314	18.220978	123.550391	67.902418	47.471338	11.882025	2.121794	-11.961794	151.495074	0.566648	1.999027	-5.798596	-12.945279
6.000000	-6.821695	-5.959402	97.401129	0.080348	1.030816	0.322821	-11.513196	-3.378482	-1.112586	4.680096	0.081683	32.160360	7.107334	0.000000	-12.242611	2.986652	-1.750732	0.350397	0.006116	29.105629	6.273519	0.000000	-0.296019	-0.542386	0.333316	-0.549737	-0.721373	0.354149	-0.486329	-1.318757	0.354149	-0.338320	-1.318757	0.291652	-0.274883	-1.106033	0.270820	-0.169145	-0.840156	0.249987	-2.114434	-6.135576	1.853806	0.000000	0.000000	7.288897	7.830047	-9.003557	-10.949362	-20.319313	17.922464	125.371419	65.900860	50.032131	9.890239	2.470246	-11.803841	152.998283	0.504056	2.136228	-5.748257	-12.577763
6.018182	-6.781120	-5.765441	96.939881	0.080366	1.030756	0.321880	-11.622232	-3.461611	-0.936799	4.795818	0.083703	32.351845	7.502281	0.000000	-12.526083	3.063533	-2.108671	0.335971	0.005864	29.122581	6.071965	0.000000	-0.294816	-0.519150	0.366418	-0.547502	-0.690469	0.389319	-0.484353	-1.262261	0.389319	-0.336945	-1.262261	0.320616	-0.273766	-1.058650	0.297715	-0.168458	-0.804163	0.274814	-2.105839	-5.872727	2.037908	0.000000	0.000000	7.621657	8.085909	-8.713726	-10.963004	-20.071205	17.349609	127.508032	64.613498	51.583927	7.041376	2.843638	-11.652049	154.523074	0.461057	2.293930	-5.626590	-12.271702
6.036364	-6.766901	-5.586009	96.485488	0.080366	1.030675	0.320926	-11.746704	-3.566643	-0.656148	4.902813	0.085570	32.436511	7.744138	0.000000	-12.794372	3.170937	-2.393205	0.321130	0.005605	29.118513	5.772785	0.000000	-0.292355	-0.499279	0.399673	-0.542933	-0.664041	0.424652	-0.480311	-1.213946	0.424652	-0.334133	-1.213946	0.349714	-0.271481	-1.018129	0.324734	-0.167052	-0.773383	0.299755	-2.088265	-5.647941	2.222861	0.000000	0.000000	7.902671	8.366141	-8.427577	-11.003259	-19.740881	16.581504	129.838570	64.070815	52.010234	3.473308	3.254659	-11.497583	156.102998	0.430225	2.435790	-5.392451	-12.022332
6.054545	-6.766197	-5.431866	96.042234	0.080336	1.030596	0.320017	-11.871132	-3.681124	-0.254659	4.990610	0.087103	32.413340	7.817390	0.000000	-13.030748	3.295835	-2.598502	0.306701	0.005353	29.097837	5.381424	0.000000	-0.288530	-0.482086	0.432011	-0.535828	-0.641175	0.459012	-0.474025	-1.172145	0.459012	-0.329761	-1.172145	0.378010	-0.267929	-0.983071	0.351009	-0.164866	-0.746752	0.324008	-2.060938	-5.453457	2.402716	0.000000	0.000000	8.104223	8.648447	-8.138412	-11.019259	-19.353749	15.699697	132.216300	64.106446	51.489462	-0.505128	3.701271	-11.333203	157.547482	0.428109	2.567872	-5.038445	-11.797289
